<svg width="512" height="512" viewBox="0 0 512 512" fill="none" xmlns="http://www.w3.org/2000/svg">
<g clip-path="url(#clip0_257_1974)">
<path d="M517.892 -148.69H17.9553C-74.0805 -148.69 -148.69 -74.0805 -148.69 17.9553V517.892C-148.69 609.928 -74.0805 684.537 17.9553 684.537H517.892C609.928 684.537 684.537 609.928 684.537 517.892V17.9553C684.537 -74.0805 609.928 -148.69 517.892 -148.69Z" fill="#1E1E1E"/>
<path d="M301.589 512C417.796 512 512 417.796 512 301.589C512 185.382 417.796 91.1781 301.589 91.1781C185.382 91.1781 91.1781 185.382 91.1781 301.589C91.1781 417.796 185.382 512 301.589 512Z" fill="url(#paint0_radial_257_1974)"/>
<path fill-rule="evenodd" clip-rule="evenodd" d="M187.967 391.364L242.674 328.241L117.83 318.422L89.074 420.822L96.789 422.926L98.8932 420.465C160.721 409.863 184.037 396.682 187.967 391.364Z" fill="url(#paint1_linear_257_1974)"/>
<path d="M429.824 82.2079C435.584 87.9679 440.192 94.8159 443.264 102.368H443.328C446.464 109.92 448.032 118.016 448.032 126.176C448.301 134.78 446.814 143.349 443.662 151.36C440.509 159.371 435.757 166.655 429.696 172.768L407.296 195.168L415.296 203.488C422.042 210.301 425.826 219.501 425.826 229.088C425.826 238.675 422.042 247.875 415.296 254.688L396.64 273.344C389.827 280.09 380.627 283.874 371.04 283.874C361.453 283.874 352.253 280.09 345.44 273.344L337.28 265.184L337.216 265.12L179.296 423.04C177.807 424.525 176.041 425.702 174.097 426.503C172.153 427.305 170.071 427.716 167.968 427.712H150.944L109.792 445.376C103.754 448.011 97.0623 448.766 90.5888 447.544C84.1153 446.322 78.1598 443.179 73.498 438.524C68.8362 433.869 65.6842 427.918 64.4524 421.446C63.2206 414.975 63.9661 408.282 66.592 402.24L84.288 361.056V344.032C84.2889 339.797 85.9689 335.734 88.9599 332.736L246.88 174.496L238.752 166.368C231.998 159.559 228.209 150.358 228.209 140.768C228.209 131.178 231.998 121.977 238.752 115.168L257.632 96.4479C262.719 91.4108 269.175 87.9816 276.197 86.5875C283.218 85.1935 290.495 85.8961 297.12 88.6079C301.536 90.4639 305.451 93.0773 308.864 96.4479L317.056 104.576L339.456 82.1759C351.134 70.5173 366.954 63.9589 383.456 63.9359C392.016 63.6848 400.539 65.1716 408.508 68.3067C416.478 71.4417 423.729 76.1918 429.824 82.2079ZM269.568 197.248L116.448 350.464V364.16C116.466 366.359 116.03 368.537 115.168 370.56L95.9679 414.72L141.248 396.896C143.271 396.034 145.449 395.598 147.648 395.616H161.344L314.56 242.368L269.568 197.248ZM407.136 149.888C409.978 147.102 412.212 143.757 413.696 140.064L413.664 140.128C415.122 136.439 415.882 132.511 415.904 128.544C416.121 124.199 415.45 119.855 413.931 115.778C412.413 111.701 410.079 107.976 407.072 104.832C401.396 99.1943 393.728 96.021 385.728 95.9999C381.433 95.8309 377.149 96.5286 373.13 98.0515C369.111 99.5744 365.44 101.891 362.336 104.864L328.512 138.72C325.511 141.719 321.443 143.405 317.2 143.405C312.957 143.405 308.888 141.719 305.888 138.72L286.368 119.264C285.946 118.85 285.445 118.524 284.896 118.304C284.361 118.038 283.763 117.927 283.168 117.984C282.573 117.927 281.975 118.038 281.44 118.304C280.891 118.524 280.39 118.85 279.968 119.264L261.312 137.92C260.903 138.313 260.578 138.785 260.358 139.308C260.138 139.83 260.027 140.393 260.032 140.96C260.027 141.527 260.138 142.089 260.358 142.612C260.578 143.135 260.903 143.607 261.312 144L367.968 250.624C368.364 251.037 368.842 251.364 369.37 251.585C369.899 251.805 370.467 251.914 371.04 251.904C371.607 251.909 372.169 251.798 372.692 251.578C373.215 251.358 373.687 251.033 374.08 250.624L392.736 231.968C393.149 231.572 393.476 231.094 393.697 230.566C393.917 230.037 394.026 229.469 394.016 228.896C394.021 228.329 393.91 227.766 393.69 227.244C393.47 226.721 393.145 226.249 392.736 225.856L373.28 206.336C370.28 203.335 368.595 199.267 368.595 195.024C368.595 190.781 370.28 186.712 373.28 183.712L407.136 149.888Z" fill="#CDD0D4"/>
<path d="M283.149 367.844C277.612 380.733 244.438 404.649 238.901 417.538C236.133 423.982 239.809 433.195 252.698 438.731C265.586 444.268 274.799 440.592 277.567 434.148C283.104 421.259 277.612 380.733 283.149 367.844Z" fill="#1ABCFE"/>
<path d="M316.052 333.284C318.954 347.008 305.624 385.671 308.526 399.395C309.977 406.257 318.29 411.668 332.014 408.766C345.737 405.863 351.148 397.55 349.697 390.689C346.795 376.965 318.954 347.008 316.052 333.284Z" fill="#0ACF83"/>
<path d="M356.935 313.027C366.904 322.895 377.025 362.519 386.994 372.388C391.979 377.322 401.898 377.271 411.766 367.302C421.634 357.333 421.584 347.414 416.599 342.48C406.63 332.612 366.904 322.895 356.935 313.027Z" fill="#A259FF"/>
</g>
<defs>
<radialGradient id="paint0_radial_257_1974" cx="0" cy="0" r="1" gradientUnits="userSpaceOnUse" gradientTransform="translate(301.589 301.589) scale(210.411)">
<stop stop-color="#3A3A3A" stop-opacity="0.6"/>
<stop offset="1" stop-color="#1E1E1E" stop-opacity="0"/>
</radialGradient>
<linearGradient id="paint1_linear_257_1974" x1="106.608" y1="408.197" x2="213.918" y2="341.567" gradientUnits="userSpaceOnUse">
<stop stop-color="#F24E1E"/>
<stop offset="1" stop-color="#FF7262"/>
</linearGradient>
<clipPath id="clip0_257_1974">
<rect width="512" height="512" fill="white"/>
</clipPath>
</defs>
</svg>
